<svg width="2229" height="1373" viewBox="0 0 2229 1373" fill="none" xmlns="http://www.w3.org/2000/svg">
<g filter="url(#filter0_d_1797_8041)">
<path d="M2167.74 463.028L1503.39 23.4507C1477.2 6.01429 1445.21 -2.11151 1413.18 0.534528C1381.15 3.18056 1351.18 16.4248 1328.66 37.8857L1122.79 232.895C1122.59 233.083 1122.36 233.231 1122.1 233.329C1121.84 233.428 1121.57 233.475 1121.29 233.468C1121 233.472 1120.71 233.419 1120.45 233.313C1120.18 233.207 1119.94 233.05 1119.75 232.853L925.297 39.963C903.273 17.9612 873.557 4.05451 841.523 0.757731C809.488 -2.53905 777.249 4.99171 750.635 21.9882L63.4597 457.58C45.1321 469.187 30.128 484.82 19.7618 503.109C9.39566 521.397 3.9837 541.784 4.00004 562.482V797.172C4.00757 817.754 9.37844 838.024 19.6479 856.229C29.9174 874.433 44.7761 890.023 62.9384 901.651L750.137 1342.54C776.719 1359.77 809.037 1367.49 841.199 1364.29C873.36 1361.1 903.223 1347.2 925.342 1325.14L1120.95 1131.1C1121.14 1130.91 1121.38 1130.75 1121.64 1130.65C1121.9 1130.54 1122.18 1130.49 1122.47 1130.49C1122.75 1130.48 1123.03 1130.53 1123.3 1130.63C1123.56 1130.74 1123.79 1130.89 1123.99 1131.08L1328.84 1326.64C1351.4 1348.39 1381.59 1361.81 1413.87 1364.45C1446.15 1367.08 1478.36 1358.76 1504.62 1340.99L2168.33 896.267C2185.83 884.528 2200.1 869.064 2209.96 851.152C2219.81 833.24 2224.97 813.394 2225 793.251V566.446C2224.98 546.186 2219.77 526.225 2209.81 508.233C2199.84 490.24 2185.42 474.74 2167.74 463.028ZM947.875 1070.42L871.073 1146.6C857.399 1160.28 838.917 1168.91 819.002 1170.91C799.088 1172.9 779.07 1168.14 762.604 1157.47L210.783 803.362C199.559 796.157 190.38 786.507 184.037 775.243C177.694 763.979 174.379 751.441 174.377 738.712V621.409C174.375 608.58 177.738 595.947 184.173 584.617C190.607 573.286 199.915 563.604 211.282 556.42L762.582 206.887C779.054 196.366 799.009 191.705 818.837 193.746C838.665 195.787 857.058 204.396 870.688 218.015L945.925 292.861C960.886 307.606 969.115 327.223 968.865 347.547C968.615 367.872 959.907 387.306 944.588 401.727L744.809 590.886C719.979 614.609 706.042 646.464 705.97 679.659C705.898 712.853 719.697 744.76 744.424 768.578L946.764 961.764C961.975 976.208 970.592 995.611 970.8 1015.88C971.007 1036.15 962.787 1055.71 947.875 1070.42ZM1120.16 899.573L890.138 679.997L1118.34 463.791L1338.84 682.54L1120.16 899.573ZM2054.67 736.232C2054.65 748.691 2051.47 760.968 2045.38 772.05C2039.29 783.132 2030.47 792.702 2019.65 799.97L1488.25 1156.07C1472 1167.07 1452.06 1172.22 1432.07 1170.59C1412.09 1168.96 1393.41 1160.66 1379.44 1147.19L1295.79 1067.35C1280.58 1052.9 1271.96 1033.5 1271.76 1013.23C1271.55 992.957 1279.77 973.404 1294.68 958.691L1485.37 769.532C1509.02 745.998 1522.19 714.919 1522.19 682.625C1522.19 650.331 1509.02 619.252 1485.37 595.719L1293.59 405.457C1278.63 390.712 1270.4 371.095 1270.65 350.771C1270.9 330.446 1279.61 311.012 1294.93 296.591L1379.03 216.934C1392.96 203.647 1411.51 195.447 1431.33 193.811C1451.16 192.175 1470.95 197.21 1487.16 208.01L2019.19 559.939C2030.14 567.182 2039.07 576.776 2045.24 587.914C2051.4 599.053 2054.62 611.411 2054.62 623.953L2054.67 736.232Z" fill="#00E38C"/>
</g>
<defs>
<filter id="filter0_d_1797_8041" x="0" y="0" width="2229" height="1373" filterUnits="userSpaceOnUse" color-interpolation-filters="sRGB">
<feFlood flood-opacity="0" result="BackgroundImageFix"/>
<feColorMatrix in="SourceAlpha" type="matrix" values="0 0 0 0 0 0 0 0 0 0 0 0 0 0 0 0 0 0 127 0" result="hardAlpha"/>
<feOffset dy="4"/>
<feGaussianBlur stdDeviation="2"/>
<feComposite in2="hardAlpha" operator="out"/>
<feColorMatrix type="matrix" values="0 0 0 0 0 0 0 0 0 0 0 0 0 0 0 0 0 0 1 0"/>
<feBlend mode="normal" in2="BackgroundImageFix" result="effect1_dropShadow_1797_8041"/>
<feBlend mode="normal" in="SourceGraphic" in2="effect1_dropShadow_1797_8041" result="shape"/>
</filter>
</defs>
</svg>
